<?xml version="1.0" encoding="UTF-8"?>
<svg width="34px" height="34px" viewBox="0 0 34 34" version="1.1" xmlns="http://www.w3.org/2000/svg" xmlns:xlink="http://www.w3.org/1999/xlink">
    <!-- Generator: Sketch 51.1 (57501) - http://www.bohemiancoding.com/sketch -->
    <title>culture</title>
    <desc>Created with Sketch.</desc>
    <defs></defs>
    <g id="Page-1" stroke="none" stroke-width="1" fill="none" fill-rule="evenodd">
        <g id="Desktop-HD-Copy-2" transform="translate(-108.000000, -166.000000)">
            <g id="Group-11" transform="translate(0.000000, 80.000000)">
                <g id="Group-10" transform="translate(24.000000, 16.000000)">
                    <g id="Group-7" transform="translate(0.000000, 48.000000)">
                        <g id="Group-3" transform="translate(70.000000, 23.000000)">
                            <g id="culture" transform="translate(15.000000, 0.000000)">
                                <circle id="Oval-2" stroke="#0097A7" fill="#FFFFFF" cx="16" cy="16" r="16"></circle>
                                <path d="M8.73660047,16.0927127 C9.45882492,15.9391464 10.1133345,15.6005974 10.6481479,15.1291228 L11.7901185,15.1291228 L11.7901185,27.4203701 L8.73660047,27.4203701 L8.73660047,16.0927127 Z M12.6754455,15.1291228 L12.6754455,15.0859442 L15.557463,15.0859442 L15.557463,15.1291228 L15.557463,27.2254211 L15.557463,27.4203448 L12.6754455,27.4203448 L12.6754455,27.2254211 L12.6754455,15.1291228 Z M20.2100333,15.1291228 L21.3520039,15.1291228 C21.8868173,15.6005974 22.5413269,15.9391464 23.263526,16.0927127 L23.263526,27.4203448 L20.2100333,27.4203448 L20.2100333,15.1291228 Z M23.5569992,7 C26.0069013,7 28.0000253,8.99314926 28,11.4430513 C28,13.5696826 26.2698687,15.2997886 24.1432628,15.2997886 C23.1820759,15.2997886 22.2399616,14.8652448 21.6127706,14.1377843 C21.1155457,13.5611076 20.811828,12.8132592 20.8029241,11.9959254 C20.8227048,10.7963832 21.7541953,9.8269502 22.8965453,9.8269502 C24.0512394,9.8269502 24.9906472,10.8174034 24.9906472,12.0348545 L25.8759741,12.0348545 C25.8759741,10.3292341 24.5394086,8.94162323 22.8965453,8.94162323 C22.5908546,8.94162323 22.295813,8.98973442 22.0179721,9.07892479 C21.0797785,9.38011303 20.346323,10.1579107 20.0578076,11.094789 C19.7465773,12.1053771 19.9854891,13.2474995 20.5233379,14.1377843 L11.4766621,14.1377843 C12.0144856,13.2474995 12.2533974,12.1053771 11.9421924,11.094789 C11.653677,10.1579107 10.9202215,9.38011303 9.98202786,9.07892479 C9.70418696,8.98973442 9.40914543,8.94162323 9.10345467,8.94162323 C7.46059136,8.94162323 6.12402588,10.3292341 6.12402588,12.0348545 L7.00935285,12.0348545 C7.00935285,10.8174034 7.94876065,9.8269502 9.10345467,9.8269502 C10.2458047,9.8269502 11.1772952,10.7963832 11.1970759,11.9959254 C11.188172,12.8132592 10.8844543,13.5611076 10.3872294,14.1377843 C9.76006374,14.8652195 8.81792408,15.2997886 7.85673723,15.2997886 C5.73010597,15.2997886 4,13.5696573 4,11.4430513 C4,8.99314926 5.99312396,7 8.44302605,7 L23.5569992,7 Z M16.4426635,15.1291228 L16.4426635,15.0859442 L19.3247063,15.0859442 L19.3247063,15.1291228 L19.3247063,27.2254211 L19.3247063,27.4203448 L16.4426635,27.4203448 L16.4426635,27.2254211 L16.4426635,15.1291228 Z" id="Combined-Shape" fill="#0097A7" fill-rule="nonzero"></path>
                            </g>
                        </g>
                    </g>
                </g>
            </g>
        </g>
    </g>
</svg>