<?xml version="1.0" encoding="UTF-8"?>
<svg width="34px" height="34px" viewBox="0 0 34 34" version="1.1" xmlns="http://www.w3.org/2000/svg" xmlns:xlink="http://www.w3.org/1999/xlink">
    <!-- Generator: Sketch 51.1 (57501) - http://www.bohemiancoding.com/sketch -->
    <title>leisure</title>
    <desc>Created with Sketch.</desc>
    <defs></defs>
    <g id="Page-1" stroke="none" stroke-width="1" fill="none" fill-rule="evenodd">
        <g id="Desktop-HD-Copy-2" transform="translate(-178.000000, -166.000000)">
            <g id="Group-11" transform="translate(0.000000, 80.000000)">
                <g id="Group-10" transform="translate(24.000000, 16.000000)">
                    <g id="Group-7" transform="translate(0.000000, 48.000000)">
                        <g id="Group-5" transform="translate(140.000000, 23.000000)">
                            <g id="leisure" transform="translate(15.000000, 0.000000)">
                                <circle id="Oval-2" stroke="#FF5722" fill="#FFFFFF" cx="16" cy="16" r="16"></circle>
                                <path d="M26.635102,6.95836735 C25.5771429,5.99836735 23.7191837,5.44653061 21.5444898,5.44653061 C19.924898,5.44653061 18.155102,5.73714286 16.2873469,6.30857143 C16.2416327,6.32163265 16.1959184,6.33795918 16.16,6.35102041 L16.0195918,6.39020408 C10.7069388,8.02285714 8.27755102,10.8277551 7.81387755,12.7412245 C7.80734694,12.7836735 7.62122449,13.8253061 8.07183673,14.3673469 C8.24816327,14.5795918 8.49306122,14.6873469 8.80326531,14.6873469 C9.43020408,14.6873469 10.2922449,14.2432653 11.4383673,13.3322449 C11.4677551,13.3289796 11.4971429,13.3191837 11.52,13.2995918 C11.5559184,13.2702041 11.5787755,13.2277551 11.5820408,13.1820408 C11.6212245,12.2938776 12.0228571,11.4710204 12.7738776,10.7330612 C12.597551,11.3763265 12.3395918,12.4897959 12.3297959,13.4106122 C12.3297959,13.4889796 12.3853061,13.557551 12.4604082,13.5673469 C12.8718367,13.6359184 13.3812245,13.7208163 13.9004082,13.7208163 C15.36,13.7208163 16.3853061,13.0122449 17.0285714,11.5559184 C17.0383673,11.5330612 17.044898,11.5102041 17.0416327,11.4873469 L16.9469388,8.96653061 L18.1746939,11.0171429 C18.1877551,11.04 18.2040816,11.0563265 18.2269388,11.0693878 C18.9322449,11.5102041 19.6277551,11.7355102 20.2971429,11.7355102 C21.5314286,11.7355102 22.484898,10.9877551 23.2555102,10.2563265 C23.3110204,10.2040816 23.3208163,10.1159184 23.2783673,10.0506122 C22.7526531,9.29306122 21.9134694,8.51918367 21.4073469,8.08163265 C22.4457143,8.27102041 23.2359184,8.72489796 23.7681633,9.44 C23.7942857,9.47591837 23.8497959,9.4922449 23.8955102,9.4955102 C23.915102,9.49877551 23.9379592,9.4922449 23.957551,9.48571429 C24.3102041,9.51183673 24.6465306,9.53795918 24.9371429,9.52489796 C26.282449,9.52489796 27.0465306,9.25714286 27.2783673,8.70530612 C27.595102,7.9444898 26.6808163,7.00408163 26.635102,6.95836735 Z M16.7118367,5.64897959 C16.5910204,5.25714286 16.1795918,5.03836735 15.7877551,5.15918367 C15.3991837,5.27673469 15.1804082,5.69142857 15.2979592,6.08326531 L16.7118367,5.64897959 Z M18.9093878,13.1689796 C18.8081633,12.8326531 18.4522449,12.6465306 18.1159184,12.7477551 C17.7828571,12.8522449 17.5934694,13.204898 17.6979592,13.5379592 L21.6522449,26.4228571 C21.7371429,26.6938776 21.9853061,26.8702041 22.2563265,26.8702041 C22.3183673,26.8702041 22.3804082,26.8604082 22.442449,26.8408163 C22.7755102,26.7363265 22.964898,26.3836735 22.8636735,26.0473469 L18.9093878,13.1689796 Z M18.9453061,22.1910204 C18.7167347,21.9265306 18.315102,21.8971429 18.0506122,22.1289796 C18.0473469,22.1322449 17.9657143,22.2008163 17.8253061,22.3020408 L15.1706122,23.0955102 L5.95918367,15.9869388 C5.93959184,15.9379592 5.91673469,15.8955102 5.89714286,15.8465306 C5.77632653,15.5526531 5.46285714,15.402449 5.16244898,15.477551 C5.00897959,15.4677551 4.8555102,15.5297959 4.75428571,15.6604082 C4.65632653,15.7877551 4.63346939,15.9510204 4.67918367,16.0946939 C4.67918367,16.1730612 4.6955102,16.2546939 4.72816327,16.3330612 C6.46204082,20.5093878 8.60081633,23.1836735 11.1020408,24.3134694 L6.18122449,25.7828571 C5.92979592,25.8579592 5.78612245,26.122449 5.86122449,26.3738776 C5.92326531,26.5795918 6.11265306,26.7134694 6.31510204,26.7134694 C6.36081633,26.7134694 6.40653061,26.7069388 6.4522449,26.6938776 L12.715102,24.8228571 C13.1232653,24.8946939 13.5216327,24.9306122 13.9036735,24.9306122 C14.5436735,24.9306122 15.1412245,24.8359184 15.6897959,24.6955102 L18.1779592,26.6155102 C18.2628571,26.6808163 18.3673469,26.7134694 18.4685714,26.7134694 C18.6089796,26.7134694 18.7526531,26.6481633 18.8440816,26.5273469 C19.0040816,26.3183673 18.964898,26.0212245 18.7591837,25.8612245 L16.7771429,24.3297959 C18.0277551,23.8106122 18.8244898,23.1346939 18.8865306,23.082449 C19.1477551,22.8571429 19.1738776,22.4555102 18.9453061,22.1910204 Z M12.6595918,23.52 C12.9044898,23.5787755 13.1428571,23.6114286 13.3812245,23.6310204 L14.0506122,23.4318367 L6.83102041,17.8612245 C8.49959184,21.0971429 10.4522449,23.0008163 12.6595918,23.52 Z" id="Shape" fill="#E64A19" fill-rule="nonzero"></path>
                            </g>
                        </g>
                    </g>
                </g>
            </g>
        </g>
    </g>
</svg>