<?xml version="1.0" encoding="UTF-8"?>
<svg width="34px" height="34px" viewBox="0 0 34 34" version="1.1" xmlns="http://www.w3.org/2000/svg" xmlns:xlink="http://www.w3.org/1999/xlink">
    <!-- Generator: Sketch 51.1 (57501) - http://www.bohemiancoding.com/sketch -->
    <title>nature</title>
    <desc>Created with Sketch.</desc>
    <defs></defs>
    <g id="Page-1" stroke="none" stroke-width="1" fill="none" fill-rule="evenodd">
        <g id="Desktop-HD-Copy-2" transform="translate(-38.000000, -166.000000)">
            <g id="Group-11" transform="translate(0.000000, 80.000000)">
                <g id="Group-10" transform="translate(24.000000, 16.000000)">
                    <g id="Group-7" transform="translate(0.000000, 48.000000)">
                        <g id="Group-4" transform="translate(0.000000, 23.000000)">
                            <g id="nature" transform="translate(15.000000, 0.000000)">
                                <circle id="Oval-2" stroke="#429747" fill="#FFFFFF" cx="16" cy="16" r="16"></circle>
                                <path d="M17.8244884,6 C13.6022662,6 10.1608798,7.47400612 8.38310204,10.0448522 C7.54925903,11.2517839 7.08646596,12.6829766 7.01103273,14.293578 C6.94375444,15.7288481 7.18432529,17.3170234 7.72866779,19.0254842 C9.5818788,13.4678899 14.7582295,9.11722732 20.7276484,9.11722732 C20.7276484,9.11722732 15.1435506,10.587156 11.6308085,15.1396534 C11.6287697,15.1416922 11.5818788,15.2008155 11.5023681,15.3088685 C10.7969654,16.2528033 10.1833059,17.3251784 9.72255159,18.540265 C8.94375444,20.393476 8.2220419,22.9357798 8.2220419,26 L10.723571,26 C10.723571,26 10.3443661,23.6126402 11.0049165,20.8644241 C12.097679,21.011213 13.0742335,21.0846075 13.9529288,21.0846075 C16.2526229,21.0846075 17.8876892,20.587156 19.0986984,19.5188583 C20.1853447,18.5606524 20.7826943,17.2762487 21.4167412,15.9143731 C22.3851408,13.8348624 23.4819807,11.4780836 26.6664863,9.65953109 C26.8479338,9.55555556 26.9661805,9.36595311 26.9804517,9.1559633 C26.9926841,8.94801223 26.900941,8.74617737 26.7317259,8.61977574 C24.568627,6.97859327 21.2373324,6 17.8244884,6 Z" id="Shape" fill="#429747" fill-rule="nonzero"></path>
                            </g>
                        </g>
                    </g>
                </g>
            </g>
        </g>
    </g>
</svg>