<?xml version="1.0" encoding="UTF-8"?>
<svg width="58px" height="60px" viewBox="0 0 58 60" version="1.1" xmlns="http://www.w3.org/2000/svg" xmlns:xlink="http://www.w3.org/1999/xlink">
    <!-- Generator: Sketch 51.1 (57501) - http://www.bohemiancoding.com/sketch -->
    <title>logo</title>
    <desc>Created with Sketch.</desc>
    <defs></defs>
    <g id="Page-1" stroke="none" stroke-width="1" fill="none" fill-rule="evenodd">
        <g id="Tablet-Copy-2" transform="translate(-12.000000, -10.000000)" fill="#FFFFFF" fill-rule="nonzero">
            <path d="M48.3709925,69.9437114 C47.2921946,69.5403348 47.1890053,68.1050646 48.2068276,67.5984987 C48.685251,67.359287 49.3184584,67.4718572 49.6843116,67.8564721 C50.129902,68.330205 50.1486637,69.0759827 49.721835,69.5778582 C49.435719,69.9202592 48.7790595,70.0984954 48.3709925,69.9437114 Z M47.517335,66.6181998 C47.1139585,66.4587253 46.8043904,66.1726094 46.6355351,65.7926849 C46.4948223,65.4831168 46.4995127,64.9108849 46.6449159,64.6106977 C46.7950095,64.2917488 47.0248404,64.0431563 47.3109563,63.8883722 C47.517335,63.7804924 47.6345957,63.7476595 47.9441638,63.7335882 C48.2818744,63.7148265 48.3569212,63.7288978 48.6102042,63.841468 C49.6186456,64.2917488 49.8156435,65.5769253 48.994819,66.3180126 C48.8681775,66.4352732 48.6617988,66.5619147 48.5398478,66.6041285 C48.2865648,66.6932466 47.7237138,66.697937 47.517335,66.6181998 Z M32.0154793,62.926835 C30.9460623,62.7908127 29.9892155,62.3686744 28.4319943,61.360233 C28.0802124,61.1304021 27.8503816,61.0084511 27.7987869,61.0272128 C27.756573,61.041284 27.3625773,61.2570436 26.9263678,61.5009457 C25.5098593,62.2842468 24.8578902,62.4812446 23.8072349,62.4484116 C23.3288115,62.4296499 23.1552658,62.4015074 22.8456977,62.298318 C21.6543297,61.890251 20.8147435,61.0319032 19.7640882,59.1510426 L19.3888542,58.4709309 L19.1965468,58.5037639 C19.088667,58.5178352 18.7790989,58.6116437 18.5070543,58.7054522 C16.6918596,59.3527309 14.942331,59.000949 13.6149406,57.7251533 C12.5502141,56.7026406 11.9310779,55.0797534 12.0061247,53.5225322 C12.020196,53.2129641 12.0577194,52.8471109 12.0905524,52.7110886 L12.1515279,52.4578056 L13.9807938,52.4484248 C15.9085586,52.4343535 16.6121224,52.3780684 17.9442032,52.1388567 C19.0699053,51.9371684 20.4113669,51.5384823 21.3682137,51.1304153 C22.418869,50.6848249 23.6289987,49.9390472 24.4638945,49.2401739 C25.0595785,48.7382983 25.9976635,47.7767611 26.4995391,47.1435537 C26.9169869,46.6182261 27.9066667,45.1688846 28.1224262,44.7608176 C28.1880922,44.6388666 28.2537581,44.5403677 28.2678294,44.5403677 C28.2819007,44.5403677 28.3194241,44.7467464 28.3522571,45.0000293 C28.4413751,45.6707602 28.704039,47.2279814 28.8728943,48.0581867 C29.6233623,51.7307897 30.8710155,54.7654949 32.4798314,56.8292821 C33.5445579,58.1988863 34.9610664,59.2354703 36.3822653,59.6904415 C36.6402387,59.7748692 36.8466174,59.8592968 36.8466174,59.882749 C36.8466174,59.9671766 36.180577,60.9099521 35.8897706,61.2335915 C35.3128483,61.8761797 34.7781398,62.2889372 34.1027185,62.6031957 C33.4695111,62.8986925 32.7143526,63.0159531 32.0154793,62.926835 Z M25.5989774,58.2035767 C25.9976635,58.0159597 26.3072316,57.711082 26.4948486,57.3077055 C26.6355614,57.0168991 26.6449422,56.9559236 26.6449422,56.5009523 C26.6449422,56.0647427 26.630871,55.9803151 26.5183008,55.736413 C26.3541359,55.3893215 25.9882827,55.0047066 25.6646433,54.8405417 L25.4113604,54.7139002 L25.6130487,54.3292854 C25.7256189,54.1182162 25.9226167,53.6820067 26.0539486,53.3630577 C26.3025412,52.7626833 26.9451295,50.8349185 27.1421273,50.112593 C27.2031029,49.8827621 27.2687688,49.6998355 27.2828401,49.6998355 C27.3766486,49.6998355 28.0520698,51.8339791 28.263139,52.7955163 C28.3803996,53.3349152 28.5633262,54.4934502 28.5304932,54.5075215 C28.5258028,54.5122119 28.3803996,54.5825683 28.2068539,54.6623056 C27.4376241,55.0140875 26.9779624,55.8536736 27.128056,56.6463555 C27.3156731,57.6547969 28.1036645,58.2833139 29.112106,58.2270288 C29.7828368,58.1895054 30.3785208,57.7814384 30.6740176,57.1576118 C30.81004,56.8761863 30.8194208,56.8152108 30.8194208,56.3602395 C30.8194208,55.9005779 30.81004,55.8442927 30.6693272,55.5628672 C30.3503783,54.920279 29.8485028,54.5731875 29.1074155,54.4887598 L28.8494422,54.4606173 L28.793157,53.9821939 C28.6852773,53.0300375 28.3944709,51.8339791 27.9817135,50.6144685 C27.5783369,49.4371717 27.414172,49.0713185 27.2828401,49.0525568 C27.160889,49.0337951 26.6449422,49.3292919 25.6505721,49.9906419 C24.2293732,50.928727 23.267836,51.7589323 22.6627711,52.5703759 L22.5361296,52.7392312 L22.3156796,52.6032088 C21.4854744,52.0966429 20.3410106,52.3593067 19.8016117,53.1848216 C19.1777851,54.1275971 19.5389478,55.4221545 20.5567701,55.92403 C20.8053627,56.0412906 20.8757191,56.0553619 21.3447616,56.0553619 C21.8138041,56.0553619 21.8888509,56.0412906 22.1515148,55.9193396 C22.5126775,55.7551747 22.9160541,55.3424172 23.0895998,54.9671832 C23.1974796,54.7326619 23.2162413,54.634163 23.2209317,54.226096 C23.2209317,53.7898864 23.2115509,53.7336013 23.0708381,53.4521758 C22.9864105,53.2833205 22.8879115,53.1050843 22.8456977,53.0487992 C22.7800317,52.9596812 22.794103,52.9315386 23.0755285,52.5797567 C23.5351902,52.0075248 24.1824689,51.4306025 25.120554,50.7504908 C25.6411912,50.3799472 26.9169869,49.5544324 26.940439,49.5825749 C26.9685816,49.606027 26.4995391,51.1351057 26.1665189,52.1107142 C25.8569508,53.0159663 25.5004785,53.8696237 25.2378146,54.3433566 L25.0924114,54.60133 L24.7031061,54.634163 C23.3616445,54.7467332 22.5408201,56.0881949 23.0942902,57.2701821 C23.3241211,57.7626767 23.6946647,58.1003873 24.1965402,58.2880044 C24.5811551,58.4334075 25.1909104,58.3958841 25.5989774,58.2035767 Z M24.3700859,58.0065788 C23.9620189,57.8799373 23.5539519,57.523465 23.3757158,57.1341597 C23.2256222,56.8105204 23.2256222,56.2007651 23.3710253,55.8818161 C23.5117381,55.5722481 23.8213062,55.2579896 24.1308743,55.107896 C24.3560147,54.9953258 24.4498232,54.9765641 24.7922242,54.9765641 C25.1252444,54.9765641 25.2331242,54.9953258 25.4582646,55.1032055 C25.7678327,55.2486087 26.0586391,55.5300342 26.2087327,55.8349119 C26.3682071,56.1632417 26.3822784,56.7120214 26.2415657,57.0872555 C26.1008529,57.4624895 25.7537614,57.809581 25.3879082,57.9456033 C25.1111731,58.0534831 24.6139881,58.0816256 24.3700859,58.0065788 Z M28.417923,57.809581 C28.0895932,57.6829395 27.7331209,57.3546097 27.5736465,57.0262799 C27.4610762,56.7964491 27.4423145,56.7026406 27.4423145,56.3602395 C27.447005,56.0272193 27.4657667,55.9193396 27.5736465,55.6988896 C27.7237401,55.3893215 28.0379986,55.0797534 28.3475666,54.9390407 C28.6758964,54.7842566 29.3231751,54.7936375 29.6468145,54.9531119 C30.8710155,55.5534864 30.8006591,57.335848 29.5295538,57.8189618 C29.2152953,57.9362225 28.7415624,57.9362225 28.417923,57.809581 Z M21.0117414,55.7317225 C19.5858521,55.3752502 19.3841638,53.4474854 20.7068637,52.8095875 C21.0633361,52.6360418 21.6496392,52.626661 21.9873499,52.7908258 C22.9019828,53.2364163 23.1974796,54.3386662 22.6158669,55.1407289 C22.2593945,55.6332236 21.5933541,55.8818161 21.0117414,55.7317225 Z M46.2321585,62.3874361 C45.8100202,62.2561042 45.4207149,61.9183936 45.2049554,61.4915649 C44.7734362,60.6425979 45.1439798,59.5778713 46.0163989,59.1510426 C46.2368489,59.0431628 46.3681808,59.0103299 46.6918202,58.9962586 C47.1467914,58.9774969 47.4751212,59.066615 47.8175223,59.3152075 C48.2208989,59.6107043 48.5257765,60.2157692 48.5257765,60.7223351 C48.5257765,61.228901 48.2208989,61.8339659 47.8175223,62.1294627 C47.3860031,62.4390308 46.7387244,62.5469106 46.2321585,62.3874361 Z M43.4272841,60.2392213 C42.8456714,60.0234617 42.4563661,59.4371586 42.334415,58.5835012 C42.2687491,58.1144586 42.3484863,57.523465 42.5923884,56.7120214 C42.7659342,56.1304087 43.183382,55.04223 43.4132129,54.5684971 L43.5445448,54.3011428 L43.1552395,53.4568662 C42.7800054,52.6548035 42.0013948,51.1397961 41.9732523,51.1679387 C41.9685619,51.1773195 42.024847,51.3414844 42.0998938,51.5337918 C42.7284108,53.156679 42.5501746,54.4418556 41.6308512,54.854613 C41.3400449,54.9859449 40.8522406,54.9859449 40.5989577,54.8593034 C39.820347,54.4606173 39.4544939,53.3958907 39.6843247,52.2092131 C39.7875141,51.6651238 40.1908907,50.4456132 40.5192204,49.6951451 L40.7725034,49.1041515 L40.1346055,48.1473047 C38.5445514,45.7598782 36.7668801,43.4803315 33.9151015,40.1548199 C33.4507494,39.615421 32.3625707,38.3490062 31.4995325,37.3405647 C30.6318038,36.3368137 29.7593847,35.3049201 29.553006,35.0563276 C29.3466272,34.807735 29.1730815,34.6107372 29.1683911,34.6154276 C29.1590102,34.6248085 29.2152953,34.7842829 29.2950326,34.9672095 C29.7312421,36.0319361 29.8813357,36.7401903 29.8813357,37.762703 L29.8813357,38.5647658 L30.2378081,38.7336211 C31.2227974,39.2120445 31.7856484,40.3377465 31.7199825,41.6979699 C31.6965303,42.2795826 31.5651984,42.8471241 31.3541293,43.3114762 L31.218107,43.6116634 L30.9507527,43.5835209 C30.8006591,43.5694496 30.2002847,43.5413071 29.6139815,43.5272358 L28.5445645,43.4944028 L28.0895932,43.1707634 C27.5408135,42.7814581 27.1139848,42.5141039 26.5511337,42.2092263 C26.1336859,41.9840858 26.1289955,41.9793954 26.1430667,41.8199209 C26.1758997,41.5244242 26.3869688,40.8630742 26.5745859,40.4831497 C26.7809646,40.0703923 27.2546975,39.4465657 27.5595752,39.1979732 C28.0661411,38.7899062 28.6289922,38.5506945 29.1965336,38.5131711 C29.5014113,38.4944094 29.5061017,38.4944094 29.5483155,38.3396253 C29.5670772,38.2551977 29.5764581,37.8893445 29.5623868,37.5281818 C29.520173,36.5431924 29.2809613,35.6707733 28.7274911,34.5075478 C28.3241145,33.6632713 28.0708315,33.241133 27.5830273,32.6032351 C26.3869688,31.0413235 25.4535742,29.6435767 24.6421306,28.1942353 L24.2762774,27.5375758 L24.2762774,28.4522087 C24.2762774,29.3949842 24.2293732,29.9578352 24.1074221,30.5488288 C23.9385668,31.3743437 23.5680232,32.1951681 23.0708381,32.8471373 L22.7800317,33.2270617 L23.1552658,33.3818457 C23.9479477,33.7007947 24.6843444,34.2542649 25.0267455,34.7842829 C25.0971019,34.9015436 25.2049817,35.1313744 25.2612668,35.3002297 C25.4019795,35.7176776 25.3785274,36.4400031 25.2049817,36.9043552 C24.4545136,38.9212381 21.7340669,40.7645752 18.647767,41.346188 C17.4141851,41.5760188 15.8100597,41.599471 14.6655959,41.3977827 C14.1168161,41.3039742 12.991114,41.0178582 12.8550917,40.9428114 C12.8081875,40.9146689 12.8738534,40.8067891 13.0943034,40.530054 C13.93858,39.4793987 14.567097,38.2786498 14.9798544,36.9184265 C15.0595916,36.6604531 15.2425182,36.0084839 15.383231,35.4643946 C15.9038682,33.4709638 16.2650309,32.7017341 17.0248798,31.9465756 C17.423566,31.5478894 18.0004883,31.1585841 18.6290053,30.8583969 L19.0933574,30.6332565 L19.6093042,30.6332565 C20.1815361,30.6332565 20.4957946,30.6989224 20.941385,30.8959203 C21.6824722,31.2289405 22.2077999,31.8762192 22.4470115,32.7392575 L22.5267488,33.020683 L22.7284371,32.7627096 C23.3241211,32.016932 23.6243083,31.3368203 23.8400679,30.2580225 C23.9104243,29.9015501 23.9244955,29.5966725 23.9244955,28.2880438 L23.9198051,26.7402034 L23.8025445,26.5056822 C23.4460721,25.8208801 22.9160541,24.2355163 22.7096754,23.2458366 C22.4751541,22.1529675 22.4282498,21.6510919 22.4235594,20.4315813 C22.4235594,19.3480931 22.4751541,18.6679814 22.5924147,18.2130102 C22.6346286,18.0535357 22.6533903,18.034774 22.7659605,18.0488453 C22.9160541,18.067607 22.9160541,18.0769878 22.8034839,19.0244537 C22.5830339,20.891243 22.8316264,22.9409589 23.521119,24.9437705 C23.8025445,25.7505237 24.4076093,27.1341992 24.52487,27.2233173 C24.6139881,27.2889832 26.0867816,27.8659055 26.5042295,27.9972374 C27.1655795,28.2036162 27.414172,28.2411396 28.1458784,28.2411396 C28.9432507,28.2411396 29.3419368,28.1614023 30.1111666,27.8471438 L30.5379953,27.6735981 L30.5661378,27.3265066 C30.6036612,26.9325109 30.7303027,26.5572769 30.931991,26.2523992 C31.1102272,25.985045 31.560508,25.5253833 31.8044101,25.3612184 C32.3531899,24.9859844 33.225609,24.6013695 34.3982153,24.221445 C34.735926,24.1135653 35.0173515,24.000995 35.0173515,23.9728525 C35.0126611,23.8039972 34.9329238,23.8086876 34.4029058,24.0150663 C33.6711994,24.2964918 32.9113505,24.5310131 32.3344282,24.6576546 C31.6965303,24.7936769 30.8053495,24.8030578 30.3972825,24.6811067 C29.8391219,24.5122514 29.4404357,24.2261355 29.2481283,23.8555919 C29.0511304,23.4662866 29.0417496,22.8987451 29.2293666,22.5375823 C29.4498166,22.1013728 30.0361198,21.7449004 30.711541,21.6229494 C31.6027218,21.4587845 32.5501878,21.707377 34.2199792,22.5328919 C34.6186653,22.7298898 34.9610664,22.8987451 34.9798281,22.9081259 C34.9985898,22.9175068 35.0361132,22.8799834 35.0642557,22.8236983 C35.11116,22.7345802 35.0923983,22.7205089 34.8203536,22.6032483 C34.1636941,22.3218228 33.1130388,21.7683526 32.6580675,21.4681654 C31.8700761,20.9381473 31.3588197,20.361225 31.119608,19.732708 C30.9788953,19.3574739 31.0070378,18.8602889 31.1946548,18.5131974 C31.7387442,17.5141368 32.972326,17.5000655 34.0182909,18.4803644 C34.3747632,18.8133846 34.5952132,19.1229527 34.8860196,19.7045654 C35.1205408,20.1642271 35.5004653,21.1539069 35.6974632,21.805876 C35.8100334,22.18111 35.8287951,22.213943 35.9413653,22.213943 C36.082078,22.213943 36.0914589,22.2655377 35.77251,21.4306419 C35.0595653,19.5591622 34.8954004,18.2692953 35.2565632,17.3077581 C35.4066568,16.9137623 35.6646302,16.6182655 36.0257929,16.4400294 C36.7997131,16.0601049 37.6205376,16.3790538 38.0145333,17.2092591 C38.1974599,17.5985644 38.253745,17.9034421 38.253745,18.475674 C38.253745,19.2777367 37.967629,20.1313941 37.1983993,21.6417111 C36.8184748,22.3921791 36.8137844,22.4062504 36.9075929,22.4719164 C36.9591876,22.5094398 37.0107823,22.5375823 37.0154727,22.5282015 C37.0201631,22.5235111 37.1796376,22.1717292 37.371945,21.7449004 C38.2021503,19.8828016 38.9854513,18.8462176 39.8953939,18.4006272 C40.1721289,18.2646048 40.2377949,18.2505336 40.6458619,18.2505336 C41.0492385,18.2505336 41.1149044,18.2646048 41.3400449,18.3865559 C41.5792566,18.5178878 41.8090874,18.7336474 41.959181,18.9681686 L42.0295374,19.0807388 L42.3578672,18.9118835 C42.7237203,18.7195761 43.0426693,18.4850548 43.4085224,18.1520346 L43.6524246,17.9222038 L43.2725001,17.5985644 C42.2171544,16.7073836 41.6777555,15.7223943 41.738731,14.8030709 C41.804397,13.8509146 42.4469852,12.9456625 43.9760639,11.6651764 C45.0595522,10.7599243 45.477,10.304953 45.477,10.0375988 C45.477,9.97662324 45.5145234,9.98600409 45.7021404,10.0938839 C46.5417266,10.5816881 47.1561723,11.3696796 47.5548585,12.4813104 C47.7799989,13.1098274 47.8456648,13.5413465 47.8409744,14.3809326 C47.836284,15.2955656 47.7612372,15.6473475 47.4188361,16.3509113 C47.0107691,17.1764262 46.2368489,17.7861815 45.3597394,17.969108 C45.0079575,18.0441548 43.9057075,18.067607 43.8634937,18.001941 C43.8494224,17.9784889 43.9150884,17.8893708 44.0088969,17.8002527 C44.2903224,17.5328985 44.8719352,16.8152634 45.134599,16.4118868 C45.6364745,15.6426571 46.072684,14.5779305 46.1524213,13.9353422 C46.1758734,13.7664869 46.1524213,13.8180816 46.0679936,14.1229593 C45.9272809,14.6435965 45.7771872,15.0563539 45.5567373,15.4831826 C45.2424788,16.1116996 44.5576767,17.0685464 44.0088969,17.6501591 C43.8400416,17.8330857 43.7884469,17.9175134 43.811899,17.9878697 C43.8634937,18.1567251 43.0755022,18.8274559 42.4469852,19.1464048 L42.113965,19.3152601 L42.0858225,19.7139463 C42.0670608,20.0657282 42.0389182,20.1642271 41.8653725,20.516009 C41.6120895,21.0272654 41.1149044,21.5432122 40.5755055,21.8574707 C39.9469885,22.2233238 38.6711928,22.7205089 37.6815131,22.9925536 C37.3203503,23.0910525 37.3109695,23.1004334 37.3531833,23.2552174 L37.3860163,23.3771685 L37.8316067,23.1895515 C38.4882662,22.9175068 39.5764449,22.556344 40.1580577,22.4203217 C41.7434214,22.0544685 42.9770033,22.3546557 43.4179033,23.2083132 C43.5679969,23.4944291 43.5961395,24.0572801 43.4835692,24.3621578 C43.3569278,24.6857971 43.0051459,25.0328886 42.6252214,25.2064344 C42.2265353,25.3940514 41.9216576,25.4503365 41.3775683,25.4503365 C40.5520534,25.4503365 39.6937056,25.1548397 38.0801992,24.3246344 L37.2734461,23.911877 L37.1983993,24.0244472 C37.1139716,24.1510887 37.0623769,24.1182557 37.9254152,24.4794184 C38.4226003,24.6811067 39.4638747,25.2205056 39.8625609,25.478479 C40.9460491,26.1773524 41.5651853,26.9747247 41.6214704,27.7486449 C41.6636842,28.3396385 41.3681874,28.8696566 40.8569311,29.1323204 C40.6130289,29.2589619 40.5332917,29.2730331 40.1768194,29.2730331 C39.7922045,29.2730331 39.7453002,29.2636523 39.3747566,29.0760353 C38.915095,28.8508949 38.4366716,28.433447 38.1646269,28.0347608 C37.7753216,27.462529 37.339112,26.4493971 36.963878,25.2392673 C36.8466174,24.8546525 36.7387376,24.5310131 36.7340472,24.5216323 C36.7246663,24.5169418 36.6683812,24.5310131 36.6027153,24.5544652 L36.4854546,24.5966791 L36.7809514,25.3471471 C37.0905195,26.1257577 37.3438025,26.9372013 37.4892056,27.617313 C37.6017759,28.1567119 37.6017759,29.0807257 37.4845152,29.4606501 C37.2312323,30.2908554 36.776261,30.6989224 36.0539355,30.7411363 C35.584893,30.7692788 35.3034674,30.6567086 34.9704472,30.3002363 C34.5670707,29.8734076 34.3888345,29.3433895 34.3935249,28.5694693 C34.3935249,27.7533353 34.7406164,26.7448939 35.5379887,25.2345769 L35.8616281,24.6154408 L35.739677,24.5872982 C35.6693206,24.5685365 35.6130355,24.5591557 35.6036547,24.5685365 C35.5989642,24.5779174 35.5051557,24.7936769 35.3972759,25.0516503 C35.1252313,25.6895482 34.6139749,26.6745375 34.2903356,27.1717226 C33.9010303,27.7674066 33.258442,28.3912332 32.8034707,28.6116832 C32.1515016,28.9259417 31.5698889,28.8837278 31.0773942,28.4944225 C30.9460623,28.3912332 30.8053495,28.2317587 30.7631357,28.1426406 C30.7209219,28.0535225 30.6693272,27.9831662 30.6505655,27.9831662 C30.6364942,27.9831662 30.5051623,28.0347608 30.36914,28.0957364 C28.9713932,28.7101821 27.6064794,28.7383246 26.0117348,28.1754736 C25.716238,28.0722842 25.4723359,27.992547 25.4629551,28.0019279 C25.4348125,28.0300704 27.1796507,29.1604629 27.7940964,29.5122448 C29.3513177,30.4034256 31.0211091,31.069466 32.5314261,31.4024862 C34.041743,31.7355064 35.706844,31.7777203 37.1421142,31.5197469 L37.5548716,31.4447001 L37.6674418,31.1961075 C38.155246,30.0891671 39.4638747,30.0094299 40.5567438,31.0178714 C41.143047,31.5619607 41.6073991,32.4578319 42.1233459,34.0338149 C42.2499874,34.4090489 42.3625576,34.7279978 42.3766289,34.7467595 C42.3953906,34.7655212 42.4516757,34.7702116 42.5032703,34.7561404 C42.6017693,34.7326882 42.5970789,34.7139265 42.400081,34.212051 C41.5417332,32.0403841 41.3916395,30.6051139 41.9216576,29.6154342 C42.1655597,29.1604629 42.5736267,28.8931087 43.1036448,28.841514 C43.5398544,28.8039906 43.8306607,28.9118704 44.1824426,29.2542714 C44.4544873,29.5216257 44.473249,29.5310065 44.7124607,29.5310065 C45.0876947,29.5310065 45.4535479,29.3715321 45.7443543,29.0807257 C46.0163989,28.8133715 46.0398511,28.7430151 45.9038287,28.621064 C45.852234,28.5741598 45.7678064,28.433447 45.7115213,28.2974247 C45.6224032,28.0957364 45.6083319,27.9972374 45.6270936,27.650146 C45.6458553,27.2936736 45.6693075,27.1951747 45.8194011,26.8902971 C46.0210894,26.4869205 46.4901319,25.952212 46.8794372,25.6895482 C47.4188361,25.323695 48.2302797,24.9672227 49.4216477,24.5779174 C50.031403,24.3762291 50.0736169,24.3527769 50.0454743,24.2589684 C50.0032605,24.1229461 50.0032605,24.1229461 49.8531669,24.1979929 C49.3606722,24.4512759 47.7753084,24.9437705 47.0951968,25.0516503 C45.4347862,25.323695 44.2621799,24.7749152 44.1355384,23.6632844 C43.9948256,22.4203217 45.4957617,21.618259 47.1796244,22.0450877 C47.770618,22.1951813 48.3334691,22.4203217 49.2715541,22.8799834 C50.0079509,23.2411461 50.0454743,23.2552174 50.1064498,23.1707898 C50.1627349,23.0910525 50.1580445,23.0769812 50.0173318,23.0160057 C49.3700531,22.7345802 48.0942574,22.0779206 47.737785,21.838709 C46.1336596,20.7739824 45.6317841,19.4559729 46.480751,18.5178878 C46.8606755,18.10044 47.5689297,17.9831793 48.1974467,18.2411527 C48.5961329,18.410008 49.0839371,18.7758612 49.3747435,19.137024 C49.7921913,19.6529707 50.3128286,20.7833633 50.7021339,22.0310164 C50.8662987,22.556344 50.8756796,22.5751057 50.9929402,22.5516536 C51.0773679,22.5375823 51.10082,22.5094398 51.0773679,22.4531547 C50.6458488,21.4071898 50.3128286,20.3330824 50.1908775,19.5919952 C49.9000711,17.847157 50.5332785,16.6323368 51.7387179,16.6323368 C52.390687,16.6323368 52.8878721,17.0450942 53.1786784,17.8330857 C53.2631061,18.067607 53.2818678,18.2130102 53.2818678,18.7664804 C53.2865582,19.324641 53.272487,19.4747346 53.1786784,19.7749218 C52.9769902,20.4315813 52.733088,21.0131941 52.2968785,21.8809228 C51.8981923,22.6689142 51.8700498,22.7533419 51.9404062,22.809627 C51.98262,22.84246 52.0295242,22.8706025 52.0435955,22.8706025 C52.0576668,22.8706025 52.1843083,22.6126291 52.3203306,22.2983706 C53.2115114,20.2533452 54.0276454,19.1745474 55.0360869,18.7055048 C55.4019401,18.5366495 55.941339,18.5272687 56.2978113,18.6914335 C56.569856,18.8133846 56.9357092,19.1745474 57.0388985,19.4184495 C57.3156336,20.0797994 57.0529698,20.9053143 56.3353347,21.6323302 C55.753722,22.2186334 55.0501582,22.5797962 53.4131997,23.1145047 C52.3859966,23.4522153 52.3719253,23.4569057 52.4000678,23.5741663 C52.4141391,23.6398323 52.4329008,23.6961174 52.4375912,23.7008078 C52.4422817,23.7101887 52.7096359,23.6069993 53.0332753,23.4803578 C54.4544741,22.9034355 55.5567241,22.6267004 56.4291432,22.62201 C57.4751081,22.6173196 58.0989346,22.8987451 58.4460261,23.5319525 C58.5961197,23.813378 58.6524048,24.2777301 58.5679772,24.5872982 C58.4366453,25.070412 57.9582219,25.5019312 57.3250145,25.6942386 C56.8278294,25.8490226 56.0163858,25.8396418 55.4629156,25.6707865 C54.8015656,25.4690982 54.1402156,25.1876727 53.2021306,24.7139397 C52.357854,24.2824206 52.3203306,24.2683493 52.2546647,24.3527769 C52.2171413,24.3996812 52.1843083,24.4559663 52.1843083,24.4700376 C52.1843083,24.4841089 52.4516625,24.6107503 52.7846827,24.7467727 C54.5529731,25.4925503 55.7584124,26.294613 56.28374,27.0872949 C56.8278294,27.9034289 56.8043772,28.6632778 56.2180741,29.2542714 C55.9272677,29.5450778 55.6317709,29.6435767 55.1392762,29.6154342 C54.2996901,29.5685299 53.4835561,28.9400129 52.9347763,27.9268811 C52.5876849,27.2842928 51.9732391,25.6473343 51.8325264,24.9953652 C51.8184551,24.9109376 51.795003,24.8405812 51.7856221,24.8405812 C51.7058849,24.8405812 51.5276487,24.9625322 51.5464104,25.0000556 C52.3766157,26.9465822 52.7283976,28.3771619 52.611137,29.3386991 C52.5313997,29.9859778 52.3719253,30.3659022 52.0342147,30.6895416 C51.7434083,30.9709671 51.4385306,31.0976086 51.0351541,31.0976086 C50.2377818,31.0976086 49.6702403,30.5206863 49.4779328,29.5169353 C49.2996967,28.5835406 49.5389084,27.6923598 50.4347796,25.8818556 C50.6786817,25.3846705 50.8756796,24.9719131 50.8662987,24.9625322 C50.8569179,24.9531514 50.8053232,24.9343897 50.7537285,24.915628 C50.6693009,24.8921759 50.6317775,24.948461 50.4535413,25.3705992 C50.1721158,26.0319492 49.6608594,27.0122481 49.3559818,27.4766002 C48.8822488,28.2083066 48.3850637,28.6914204 47.8222127,28.9634651 C47.3672414,29.1792246 46.9075798,29.216748 46.513584,29.0666544 L46.2556106,28.9728459 L46.1852542,29.0760353 C45.9272809,29.4606501 45.3597394,29.7983608 44.8906969,29.845265 C44.6467947,29.8687172 44.628033,29.8827884 44.6561756,29.9719065 C44.9985766,31.1445129 44.7828171,32.1576447 43.7556139,34.1698372 C43.3803799,34.9015436 43.3663086,34.9437574 43.4413554,35.028185 C43.4882597,35.0750893 43.5398544,35.0985414 43.5586161,35.0797797 C43.5773778,35.0563276 43.6664958,34.8546393 43.7603043,34.6294989 C43.8541129,34.4043585 44.0604916,33.9634585 44.2152756,33.6492 C45.0876947,31.9090522 45.8709958,31.0647756 46.8372234,30.8161831 C47.2030766,30.7223746 47.4657404,30.7552075 47.8550457,30.9428246 C48.4085159,31.2101788 48.6477276,31.6370075 48.6102042,32.3171192 C48.5914425,32.645449 48.5632999,32.7533287 48.4132063,33.0628968 C48.2021372,33.4850351 47.7893797,33.9587681 47.3906936,34.2261223 C46.7856287,34.6388797 45.5708085,35.1548265 44.4122735,35.4925372 C43.9010171,35.6426308 43.8822554,35.6520116 43.8822554,35.7786531 C43.8822554,35.8490095 43.9010171,35.909985 43.9291597,35.909985 C43.9526118,35.909985 44.1589905,35.8349382 44.3841309,35.7411297 C45.3738107,35.3283723 46.4854415,34.9859712 47.1890053,34.8780914 C47.7096425,34.7936638 48.4038254,34.8124255 48.8212733,34.9203053 L49.1918169,35.0188042 L49.313768,34.8640202 C49.5670509,34.5497617 49.9188328,34.2589553 50.2143296,34.1135521 C50.4863743,33.9822202 50.5754924,33.9634585 51.0117019,33.9493872 C51.4197689,33.9353159 51.5792434,33.9493872 51.8935019,34.0338149 C52.0998806,34.0901 52.2968785,34.1651468 52.3297115,34.2026702 C52.3719253,34.2589553 52.4329008,34.1979798 52.64397,33.8884117 C53.2865582,32.955017 54.2246433,32.2467628 55.1627284,31.9887894 C55.5520337,31.8856001 56.3306443,31.8527671 56.7668538,31.9231235 C58.5914293,32.2139298 60.4019335,33.6585808 61.3822324,35.5957265 C61.9169409,36.6510722 62.1420813,37.8142977 61.9826068,38.7054785 C61.9028696,39.1604498 61.8981792,39.1651402 61.7996802,39.0760221 C61.752776,39.0338083 61.6120632,38.9634519 61.4854217,38.9212381 C61.2884239,38.8508817 60.9413324,38.8415009 58.4460261,38.8415009 C55.4441539,38.8415009 55.3034411,38.83212 54.4826167,38.5882179 C53.1974401,38.2129839 52.4844955,37.5281818 52.2546647,36.4493839 C52.1514753,35.9475084 52.170237,35.1501361 52.3015689,34.5638329 C52.3203306,34.4840957 52.3062593,34.4559531 52.2452838,34.4559531 C52.1983795,34.4559531 52.0342147,34.4137393 51.8794306,34.3668351 C51.0117019,34.0994808 50.3878754,34.2355032 49.7687392,34.840568 L49.4450999,35.159517 L49.6608594,35.3799669 C50.4066371,36.1398158 50.1955679,37.2561371 49.215269,37.7392509 C48.1130191,38.2786498 46.8935085,38.0535094 44.6327235,36.8902839 C43.8728746,36.4962882 43.811899,36.472836 43.7556139,36.5478829 C43.7227809,36.5947871 43.6993288,36.6510722 43.7087097,36.6745243 C43.7134001,36.6979765 44.0511107,36.8574509 44.4497969,37.0309967 C45.885067,37.6501328 46.701201,38.1520083 47.3531702,38.8133583 C48.0004489,39.4653274 48.2584223,40.0657019 48.1505425,40.6473146 C47.9957584,41.4587582 47.2921946,41.9512529 46.4713702,41.8199209 C45.8053298,41.7120412 45.0126479,41.1116667 44.5670575,40.3705795 C44.1965139,39.7514434 43.7743756,38.7101689 43.436665,37.575086 C43.370999,37.3452552 43.3053331,37.1248052 43.2959522,37.0966626 C43.281881,37.0497584 43.249048,37.0497584 43.1552395,37.0919722 C43.0895735,37.1201147 43.0379788,37.1576382 43.0379788,37.1717094 C43.0379788,37.1904711 43.1083352,37.3733977 43.1974533,37.5797764 C43.7321618,38.8461913 44.065182,40.0797731 44.1027054,40.9287401 C44.1402288,41.8433731 43.999516,42.382772 43.5961395,42.823672 C43.0239076,43.4474985 42.1233459,43.4803315 41.5417332,42.8987188 C41.1008332,42.4578188 40.9038353,41.8293018 40.9413587,40.9990965 C40.9788821,40.2017242 41.2415459,39.4512561 41.9638714,38.0206764 C42.179631,37.5938477 42.3578672,37.2279945 42.3578672,37.2045424 C42.3578672,37.1810903 42.3109629,37.1482573 42.2593682,37.1248052 C42.1655597,37.0919722 42.1374172,37.1435669 41.8653725,37.7533222 C40.8616215,40.0375593 39.8250375,41.2242369 38.6993354,41.3696401 C38.4179099,41.4071635 38.0051524,41.3086646 37.7518695,41.1444997 C37.2406131,40.8208603 37.0060918,40.243938 37.1280429,39.6341827 C37.2265418,39.1416881 37.437611,38.7899062 37.9019631,38.3255541 C38.5210992,37.7017275 39.1636875,37.3687073 40.7396704,36.8433797 C41.4291629,36.6135488 41.5558044,36.5572637 41.5464236,36.4869073 C41.518281,36.3555754 41.5042097,36.3555754 41.2649981,36.4493839 C40.5848864,36.7167382 39.3747566,37.0966626 38.8869524,37.199852 C37.625228,37.4625158 36.5933344,37.2983509 36.0445546,36.7495711 C35.7443674,36.4493839 35.6505589,36.2007914 35.6458685,35.6801542 L35.6411781,35.2392542 L34.9892089,34.9953521 C31.4385569,33.6585808 28.5304932,31.8433862 25.9789018,29.3809129 C25.2471955,28.6679683 25.2425051,28.6585874 26.1758997,30.0704054 C27.5595752,32.1529543 28.9667028,33.9212447 32.6533771,38.1895317 C33.6524377,39.3480668 34.8344249,40.7223614 35.2706345,41.2476891 L36.0726972,42.2045358 L37.1280429,42.7345539 C39.3278524,43.8368038 41.2837598,44.6576283 43.3897607,45.3611921 C44.6092713,45.7692591 45.9741851,46.1679452 46.7762478,46.3461814 L47.109268,46.4212282 L47.6064531,46.0272325 C49.7030733,44.3621315 51.2368424,43.6491868 52.3344019,43.8321134 C52.9066338,43.9259219 53.3053199,44.2073475 53.5257699,44.6716996 C53.8822422,45.4127868 53.4835561,46.2992772 52.6017561,46.7307963 C52.235903,46.9090325 51.6777423,47.0731973 51.386936,47.0778878 L51.1758668,47.0825782 L51.3634838,47.1201016 C51.4666732,47.1435537 51.9357157,47.1857675 52.4047583,47.2186005 L53.2631061,47.2795761 L54.0933114,46.4587516 C55.5520337,45.0234815 56.3212634,44.488773 57.2687294,44.2495613 C57.9441506,44.0760155 58.5023112,44.1979666 58.9056878,44.6013432 C59.3090644,45.0047198 59.4122537,45.6238559 59.1589708,46.1444931 C58.9948059,46.4822037 58.5492155,46.8996516 58.1083155,47.1341729 C57.5689166,47.4155984 57.1045645,47.5047165 55.9601007,47.5375495 C55.0736103,47.5610016 55.0126348,47.5703824 55.3737975,47.6032154 C56.8043772,47.7345473 57.8831751,48.1050909 58.5023112,48.6820132 C58.8916165,49.0478664 59.0417101,49.3527441 59.0417101,49.7795728 C59.0464006,50.5253504 58.6055006,51.0272259 57.8315804,51.1585578 C57.38599,51.2336046 56.9075666,51.1351057 56.3259539,50.8489897 C55.9601007,50.6660632 55.8100071,50.553493 55.345655,50.1079025 C54.8015656,49.5872653 54.088621,48.7429888 53.5586029,47.9925207 L53.2865582,47.6032154 L52.4798051,47.5469303 C52.0389051,47.5187877 51.3306509,47.4531218 50.9085126,47.4015271 C50.4910647,47.3499324 50.1111403,47.3077186 50.0736169,47.312409 C50.0360935,47.312409 50.2143296,47.3921463 50.472303,47.4906452 C51.2931275,47.8049037 51.7152657,48.0581867 52.1420944,48.5131579 C52.5032572,48.8930824 52.6627317,49.2167217 52.6908742,49.6294792 C52.7283976,50.2298536 52.4610434,50.7035866 51.9404062,50.96156 C51.2321519,51.3180323 50.1861871,51.0412972 49.3888148,50.2955196 C48.8165829,49.7608111 48.0004489,48.5506813 47.3860031,47.3217899 C47.2406,47.0356739 47.0998872,46.7870814 47.0764351,46.7683197 C47.0482925,46.7542484 46.7293436,46.6651303 46.3588,46.5760123 C44.3653692,46.088208 42.0389182,45.3002166 39.9376077,44.3996549 C38.9713801,43.9868975 36.9685684,43.0488124 36.7621897,42.9174805 C36.7012142,42.8752667 36.6449291,42.8518145 36.6355482,42.8611954 C36.6261674,42.8705762 36.841927,43.1520017 37.1092812,43.4850219 C38.2490546,44.89684 39.4638747,46.5525601 40.4301023,47.9972111 L41.0492385,48.9259154 L41.3494257,48.9587483 C42.2875108,49.0666281 43.5726873,49.3527441 44.2574894,49.606027 C45.4066436,50.0281653 46.1336596,50.7598717 46.1336596,51.4868876 C46.1336596,52.307712 45.5192138,52.8518014 44.6843181,52.781445 C44.0182777,52.7251599 43.4788788,52.4343535 42.8972661,51.8292886 C42.6861969,51.6088387 42.5173416,51.4446738 42.5267225,51.4681259 C42.5361033,51.4868876 42.7284108,51.866812 42.9488608,52.3030216 C43.1740012,52.7439216 43.4648075,53.344296 43.6008299,53.6397928 C43.7321618,53.9352896 43.8588033,54.193263 43.877565,54.2167152 C43.8963267,54.2354769 44.2293469,54.3245949 44.6139618,54.413713 C45.8428532,54.699829 46.9826266,55.1219672 47.5783106,55.4972013 C47.7237138,55.5910098 47.9769967,55.8020789 48.1364712,55.9662438 C48.8025116,56.6275938 48.8869393,57.4062044 48.3616116,57.9925076 C47.9160212,58.4850022 47.2687425,58.5459777 46.4760606,58.1566724 C45.885067,57.8705565 45.322216,57.2654916 44.8015788,56.3555491 C44.4497969,55.7504842 44.440416,55.736413 44.3935118,55.7833172 C44.3653692,55.8114598 44.4216543,55.9850055 44.538915,56.2335981 C44.8203405,56.8339725 45.0923851,57.7017012 45.1486702,58.1895054 C45.2471692,58.968116 45.068933,59.6013235 44.6467947,59.9718671 C44.3137745,60.2626734 43.8025182,60.3752436 43.4272841,60.2392213 Z M54.684305,47.529644 C54.6233295,47.4932804 54.5295209,47.4932804 54.4732358,47.529644 C54.4122603,47.5660076 54.4591646,47.6023713 54.5764252,47.6023713 C54.6936858,47.6023713 54.7405901,47.5660076 54.684305,47.529644 Z M54.243405,47.5034684 C54.1965007,47.4421774 53.6383401,47.4038705 53.6383401,47.4651615 C53.6383401,47.5034684 53.7790529,47.5341139 53.9525986,47.5341139 C54.1214539,47.5341139 54.2527859,47.5187912 54.243405,47.5034684 Z M14.4216938,40.2861519 C15.7537746,39.7326817 17.2124969,38.9399998 18.305366,38.1801509 C19.9798478,37.012235 21.4385701,35.4878467 22.3672743,33.9353159 C22.7002945,33.3818457 22.7471988,33.2176809 22.5877243,33.1660862 C22.4563924,33.1238723 22.4047977,33.175467 22.1186818,33.6445096 C20.7584584,35.8912233 18.9901681,37.6313711 16.6261937,39.0572604 C15.9085586,39.4840891 14.7828565,40.0610114 14.027698,40.3893412 C13.7462725,40.5112923 13.5023704,40.6238625 13.4882991,40.6379338 C13.4413949,40.684838 13.71813,40.5769582 14.4216938,40.2861519 Z M60.6270739,37.0169254 C60.6270739,37.0075445 60.5895505,36.9700211 60.5473367,36.9371882 C60.4722899,36.8762126 60.4675994,36.8809031 60.528575,36.9559499 C60.5895505,37.0309967 60.6270739,37.0544488 60.6270739,37.0169254 Z M60.2283877,36.5619541 C59.4544676,35.7598914 58.3428368,35.0844701 57.1749208,34.6951648 C56.0539092,34.3199308 55.0783007,34.1932893 53.5961263,34.2355032 C52.6345891,34.2636457 52.3719253,34.2870978 52.3719253,34.3574542 C52.3719253,34.3715255 53.0004423,34.3855968 53.769672,34.3855968 C55.312822,34.3855968 55.8287688,34.4371914 56.8231389,34.6951648 C58.1223868,35.028185 59.3700399,35.722368 60.1814835,36.5619541 C60.2799824,36.6698339 60.3737909,36.7542616 60.3878622,36.7542616 C60.4019335,36.7542616 60.3268867,36.6698339 60.2283877,36.5619541 Z M41.6308512,35.3002297 C41.6308512,35.281468 41.4666863,35.2017308 41.2696885,35.1126127 C39.037046,34.1463851 37.8081546,33.1191819 37.5877046,32.0403841 C37.5408003,31.8058628 37.5267291,31.7777203 37.437611,31.8011724 C36.5089068,32.0216224 34.4967143,32.0638362 33.3522505,31.8856001 C32.6486867,31.7777203 31.6636974,31.543199 31.0539421,31.3368203 C29.5061017,30.8208735 27.7143592,29.9203118 26.1758997,28.8931087 C25.5802157,28.4944225 25.5755253,28.4944225 25.9648306,28.8977991 C28.2256156,31.2289405 31.2556304,33.1848479 34.7124738,34.5356904 C35.9226036,35.0094233 35.7865812,34.9906616 36.0539355,34.7326882 C36.4948355,34.3011691 37.1468046,34.0994808 37.9488673,34.1416946 C38.6993354,34.1839085 39.5295407,34.465334 40.8006459,35.1079223 C41.4150917,35.4174903 41.5229715,35.4597042 41.5745661,35.3987286 C41.6027087,35.3612052 41.6308512,35.314301 41.6308512,35.3002297 Z M46.2668678,13.4569189 C46.2207139,13.4100146 46.1899447,13.447538 46.1899447,13.5366561 C46.1899447,13.6257742 46.2207139,13.6632976 46.2668678,13.6210837 C46.297637,13.5741795 46.297637,13.4991327 46.2668678,13.4569189 Z M36.5792631,59.5028245 C35.8428664,59.3105171 34.8954004,58.8039511 34.1308611,58.1988863 C31.9404325,56.4587385 30.2143559,53.0628705 29.2059145,48.5037771 C28.9057273,47.157625 28.6243017,45.5159761 28.4929698,44.3433698 C28.4601368,44.0619443 28.4226134,43.8368038 28.4085422,43.8368038 C28.3944709,43.8414943 28.2209252,44.1182294 28.0286177,44.45594 C25.9507593,48.0863292 23.5070477,50.2251632 20.1721553,51.336794 C18.9995489,51.7260993 17.9723458,51.9418589 16.5136235,52.1154046 C15.8991778,52.1904514 12.6252609,52.2748791 12.3156928,52.2232844 C12.2171939,52.2092131 12.2594077,52.1763801 12.5736662,52.0122152 C13.3898002,51.5947674 14.2434576,50.830228 15.0595916,49.7889536 C15.4395161,49.3011494 15.791298,48.7711313 17.6674681,45.9146623 C18.3851032,44.8171027 18.8963596,44.1416815 19.496734,43.4990932 C21.0867882,41.7823975 22.8128647,41.2336178 24.7875338,41.8011592 C25.7021667,42.0685135 26.7809646,42.6172933 27.8410007,43.3630709 L28.4319943,43.7758283 L29.5061017,43.8039709 C30.6036612,43.8321134 31.2462495,43.9024698 31.9451229,44.0760155 C33.1177292,44.3715123 33.8635069,44.7608176 34.5764515,45.4456197 C35.4207281,46.2523729 35.8991515,47.2936473 36.1196014,48.8086547 C36.2227908,49.5169089 36.2556238,51.0600589 36.1946483,52.2608078 C36.0257929,55.5769385 36.0304834,56.5947608 36.2181004,57.589131 C36.3541227,58.3255278 36.6027153,59.0103299 36.8935216,59.4465394 C37.0107823,59.6200852 37.0201631,59.6200852 36.5792631,59.5028245 Z M60.4582186,49.0525568 C59.7499644,48.8039643 59.2949931,48.1566856 59.2996835,47.4015271 C59.304374,46.8011527 59.5529665,46.3133484 60.0407707,45.966257 C60.3597197,45.7411165 60.6927399,45.6519985 61.1383303,45.6754506 C61.785609,45.7082836 62.3203175,46.055375 62.6111238,46.6463686 C62.7471462,46.9277942 62.7612174,46.9934601 62.7612174,47.4015271 C62.7612174,47.8095941 62.7471462,47.8752601 62.6111238,48.1566856 C62.4281972,48.5272292 62.1327004,48.8133451 61.7621568,48.9868909 C61.4103749,49.1510558 60.8193813,49.1791983 60.4582186,49.0525568 Z M64.7124344,47.3546229 C64.2949865,47.2655048 63.858777,46.904342 63.6664695,46.4868942 C63.5023046,46.1304218 63.5116855,45.5910229 63.6899217,45.2345506 C64.234011,44.1276102 65.8381365,44.1276102 66.3822258,45.2345506 C66.560462,45.5957134 66.5651524,46.1257314 66.4009875,46.496275 C66.274346,46.782391 65.9178737,47.1341729 65.6317578,47.2608144 C65.3878556,47.3686941 64.9844791,47.4062175 64.7124344,47.3546229 Z M67.3343822,44.7232942 C66.4854152,44.3386794 66.3165599,43.1942156 67.0154332,42.5938411 C67.6392598,42.0591326 68.5914161,42.2608209 68.9901023,43.011289 C69.1448863,43.3020954 69.1355055,43.827423 68.9666502,44.1463719 C68.7368193,44.5825815 68.3334428,44.8217932 67.8362577,44.8217932 C67.6439502,44.8217932 67.4704045,44.7842698 67.3343822,44.7232942 Z" id="logo" transform="translate(40.550027, 40.000000) scale(-1, -1) translate(-40.550027, -40.000000) "></path>
        </g>
    </g>
</svg>